<svg id="visual" viewBox="0 0 900 600" width="900" height="600" xmlns="http://www.w3.org/2000/svg" xmlns:xlink="http://www.w3.org/1999/xlink" version="1.1"><rect x="0" y="0" width="900" height="600"></rect><g fill="#FFFFFF"><circle r="58" cx="68" cy="46"></circle><circle r="40" cx="428" cy="230"></circle><circle r="54" cx="37" cy="268"></circle><circle r="44" cx="556" cy="9"></circle><circle r="46" cx="828" cy="178"></circle><circle r="53" cx="883" cy="448"></circle><circle r="56" cx="815" cy="583"></circle><circle r="49" cx="753" cy="265"></circle><circle r="46" cx="611" cy="186"></circle><circle r="46" cx="381" cy="375"></circle><circle r="47" cx="283" cy="287"></circle><circle r="51" cx="744" cy="9"></circle><circle r="51" cx="883" cy="19"></circle><circle r="55" cx="264" cy="460"></circle><circle r="41" cx="207" cy="120"></circle><circle r="47" cx="601" cy="488"></circle><circle r="48" cx="577" cy="334"></circle><circle r="42" cx="169" cy="229"></circle><circle r="48" cx="107" cy="370"></circle><circle r="50" cx="417" cy="10"></circle><circle r="40" cx="66" cy="523"></circle><circle r="41" cx="448" cy="518"></circle><circle r="48" cx="680" cy="575"></circle><circle r="41" cx="764" cy="465"></circle><circle r="47" cx="498" cy="125"></circle><circle r="52" cx="350" cy="117"></circle><circle r="56" cx="286" cy="18"></circle><circle r="53" cx="262" cy="574"></circle><circle r="40" cx="691" cy="365"></circle><circle r="49" cx="869" cy="313"></circle><circle r="39" cx="5" cy="145"></circle><circle r="39" cx="558" cy="598"></circle><circle r="42" cx="726" cy="122"></circle></g></svg>
